<svg xmlns="http://www.w3.org/2000/svg" width="1200" height="800" viewBox="0 0 1200 800" role="img" aria-label="Marketing dashboard image placeholder">
  <rect width="1200" height="800" rx="36" fill="#0A0A0A"/>
  <rect x="54" y="54" width="1092" height="692" rx="28" fill="#141414" stroke="#C9A84C" stroke-opacity="0.25"/>
  <rect x="105" y="118" width="270" height="120" rx="18" fill="#1E1E1E" stroke="#ffffff" stroke-opacity="0.08"/>
  <rect x="425" y="118" width="270" height="120" rx="18" fill="#1E1E1E" stroke="#ffffff" stroke-opacity="0.08"/>
  <rect x="745" y="118" width="270" height="120" rx="18" fill="#1E1E1E" stroke="#ffffff" stroke-opacity="0.08"/>
  <text x="135" y="165" fill="#888888" font-family="Inter, Arial" font-size="22" font-weight="700">LEADS</text>
  <text x="135" y="215" fill="#C9A84C" font-family="Georgia" font-size="52" font-weight="900">248</text>
  <text x="455" y="165" fill="#888888" font-family="Inter, Arial" font-size="22" font-weight="700">ROAS</text>
  <text x="455" y="215" fill="#C9A84C" font-family="Georgia" font-size="52" font-weight="900">4.2x</text>
  <text x="775" y="165" fill="#888888" font-family="Inter, Arial" font-size="22" font-weight="700">CPL</text>
  <text x="775" y="215" fill="#C9A84C" font-family="Georgia" font-size="52" font-weight="900">-31%</text>
  <polyline points="125,610 250,545 375,570 500,460 625,490 750,360 875,390 1015,295" fill="none" stroke="#C9A84C" stroke-width="8" stroke-linecap="round" stroke-linejoin="round"/>
  <line x1="125" y1="650" x2="1030" y2="650" stroke="#ffffff" stroke-opacity="0.1"/>
  <line x1="125" y1="300" x2="125" y2="650" stroke="#ffffff" stroke-opacity="0.1"/>
  <text x="125" y="720" fill="#BBBBBB" font-family="Inter, Arial" font-size="28">Campaign performance placeholder</text>
</svg>
